<?xml version="1.0" standalone="no"?>
<!DOCTYPE svg PUBLIC "-//W3C//DTD SVG 20010904//EN"
 "http://www.w3.org/TR/2001/REC-SVG-20010904/DTD/svg10.dtd">
<svg version="1.0" xmlns="http://www.w3.org/2000/svg"
 width="1324.000000pt" height="1324.000000pt" viewBox="0 0 1324.000000 1324.000000"
 preserveAspectRatio="xMidYMid meet">
<metadata>
Created by potrace 1.11, written by Peter Selinger 2001-2013
</metadata>
<g transform="translate(0.000000,1324.000000) scale(0.100000,-0.100000)"
fill="#000000" stroke="none">
<path d="M4613 11293 c-56 -11 -73 -47 -277 -569 -880 -2253 -2214 -5628
-2664 -6740 -377 -931 -380 -937 -546 -1111 -231 -243 -451 -343 -954 -434
-79 -14 -132 -29 -148 -41 l-24 -19 0 -203 c0 -159 3 -206 14 -222 14 -19 43
-19 1738 -19 1385 0 1727 3 1746 13 22 13 22 15 22 236 l0 224 -117 11 c-340
33 -558 75 -763 146 -348 122 -460 228 -460 439 0 122 35 253 246 923 219 697
384 1184 409 1209 l24 24 1596 0 c1387 0 1600 -2 1625 -15 33 -17 11 38 322
-805 411 -1117 508 -1394 523 -1492 4 -25 2 -63 -4 -86 -24 -88 -82 -126 -300
-196 -228 -74 -427 -112 -746 -142 -38 -3 -85 -12 -102 -20 l-33 -13 0 -231 0
-230 3635 2 3634 3 22 22 c19 19 23 37 30 170 29 497 64 1002 156 2201 27 358
27 364 8 378 -15 11 -61 14 -208 14 -258 0 -245 8 -323 -188 -75 -187 -369
-733 -551 -1025 -107 -173 -314 -478 -388 -572 -73 -94 -167 -184 -244 -233
-108 -69 -164 -85 -641 -178 l-235 -46 -465 -5 c-486 -6 -878 7 -1017 31 -43
8 -118 30 -166 49 -240 97 -426 247 -567 459 -104 155 -18 -59 -1132 2818
-994 2567 -1855 4795 -1979 5123 -69 181 -121 302 -135 317 l-24 25 -258 1
c-141 1 -267 0 -279 -3z m541 -3749 l695 -1779 -1381 -3 c-760 -1 -1383 0
-1386 2 -2 3 47 136 108 298 226 592 1146 2979 1251 3247 5 13 12 22 14 19 2
-2 317 -805 699 -1784z"/>
<path d="M5763 11248 c-16 -21 -24 -178 -13 -266 12 -95 39 -164 72 -186 13
-8 147 -49 298 -90 151 -41 313 -87 360 -101 297 -94 432 -228 496 -496 17
-69 19 -152 20 -1170 2 -1071 3 -1099 23 -1207 27 -141 64 -246 259 -747 88
-225 347 -894 575 -1485 528 -1368 529 -1370 544 -1370 10 0 13 581 16 2993 2
2844 3 2996 21 3067 39 165 103 273 204 349 118 89 489 188 858 231 120 13
171 23 183 35 22 22 26 398 5 433 l-14 22 -1949 0 c-1547 0 -1951 -3 -1958
-12z"/>
</g>
</svg>
