<svg id="Layer_1" data-name="Layer 1" xmlns="http://www.w3.org/2000/svg" viewBox="0 0 1324.27 936.84"><defs><style>.cls-1{fill:#1a7abe}</style></defs><title>al-logo</title><path class="cls-1" d="M1317.26 658c-11.53.25-23.09-.23-34.6.31-2.63.12-6.24 2.55-7.48 4.92-3.36 6.45-5.33 13.61-8.5 20.17-25.24 52.34-54 102.62-88.36 149.58-12.9 17.61-28.09 31.57-50 36.21-21.45 4.54-43 8.63-64.56 12.61-4.22.78-133.67 3.35-155.37-3.61-38.11-12.25-64.39-37.19-79.67-73.75C819.48 782.31 562.25 116.61 550.8 87c-10.23-26.52-20.46-53-30.47-79.63C518.25 1.78 515 .25 509.14.18 494.5 0 481.83-.05 467.47 0c-10 .06-13.06 4.1-16 11.87C441.73 38 143.39 798.84 130.31 820.2c-17.6 28.73-43.47 48.92-76.66 57.88-14.59 3.94-29.52 6.69-44.41 9.34-6.38 1.14-9.75 2.93-9.17 10.31.72 9.12.17 18.34.19 27.52 0 11.14 0 11.14 11.15 11.14 108 0 332 .27 335.86-.32 1.8-.28 4.73-2.26 4.76-3.52.34-14.3.22-28.61.22-43.27-6-.71-10.85-1.51-15.77-1.84-29.94-2-59.18-7.6-86.81-19.4-28.78-12.29-35.17-25.21-30.94-50.48 3.06-18.26 45.3-149.23 61.69-196.81 2.05-6 4.77-7.32 10.59-7.3 69.48.18 277.68 0 312.29.29 2.74 0 7.1 1.87 7.94 4 6.77 16.94 12.89 34.13 19.19 51.26 13.59 36.94 27.28 73.84 40.72 110.84 6.85 18.87 13.79 37.74 19.63 56.93 4.73 15.56 1 25.87-11.77 30.77a315.82 315.82 0 0 1-48.64 14.38c-16.6 3.42-33.73 4.27-50.59 6.53-2.11.28-5.69 2.24-5.72 3.51-.41 14.56-.26 29.14-.26 44.9 112.41 0 615.51-.53 721.18-.28 7.92 0 10.31-2.5 10.69-10.2q2.2-44.75 5.49-89.45 6.23-85.86 13-171.67c.5-5.82-1.52-7.4-6.9-7.26zM307.59 553.37c1.1-3.77 136.23-355 137.75-357.82 10.22 26.13 120.81 309.4 140 358.66-4.14-.01-272.8-.84-277.75-.84z"/><path class="cls-1" d="M838.84 717.34c-4.76-12-9.61-23.92-14.27-35.93-10.27-26.5-99.11-257.65-111.11-287.41-8.56-21.2-14.6-42.23-14.09-65.87 1.32-61.59.43-123.23.36-184.85 0-15.82-1.78-31.35-9.85-45.43-8.33-14.52-22.3-22.18-37.15-27.08-22.25-7.3-45.13-12.66-67.73-19.05a9.29 9.29 0 0 1-5.15-3.86c-7.17-12.8-5.25-26.87-5-40.64 0-1.24 2.45-3.16 4-3.48 2.77-.56 5.74-.13 8.62-.13 90.2 0 338.77.24 372.85-.15 7.74-.09 10 2.34 9.49 9.81a272.32 272.32 0 0 0-.06 29.09c.29 6.77-2.23 8.82-9 9.35-29 2.28-57.47 7.74-85 17.6-19.56 7-28.52 22.76-32.29 41.73-2 10.19-2.53 20.81-2.54 31.24-.03 188.56-.02 571.72-.02 574.72z"/></svg>