<svg version="1" xmlns="http://www.w3.org/2000/svg" width="1765.333" height="1765.333" viewBox="0 0 1324.000000 1324.000000"><path d="M461.3 194.7c-5.6 1.1-7.3 4.7-27.7 56.9-88 225.3-221.4 562.8-266.4 674-37.7 93.1-38 93.7-54.6 111.1-23.1 24.3-45.1 34.3-95.4 43.4-7.9 1.4-13.2 2.9-14.8 4.1l-2.4 1.9v20.3c0 15.9.3 20.6 1.4 22.2 1.4 1.9 4.3 1.9 173.8 1.9 138.5 0 172.7-.3 174.6-1.3 2.2-1.3 2.2-1.5 2.2-23.6v-22.4l-11.7-1.1c-34-3.3-55.8-7.5-76.3-14.6-34.8-12.2-46-22.8-46-43.9 0-12.2 3.5-25.3 24.6-92.3 21.9-69.7 38.4-118.4 40.9-120.9l2.4-2.4h159.6c138.7 0 160 .2 162.5 1.5 3.3 1.7 1.1-3.8 32.2 80.5 41.1 111.7 50.8 139.4 52.3 149.2.4 2.5.2 6.3-.4 8.6-2.4 8.8-8.2 12.6-30 19.6-22.8 7.4-42.7 11.2-74.6 14.2-3.8.3-8.5 1.2-10.2 2l-3.3 1.3v46.1l363.5-.2 363.4-.3 2.2-2.2c1.9-1.9 2.3-3.7 3-17 2.9-49.7 6.4-100.2 15.6-220.1 2.7-35.8 2.7-36.4.8-37.8-1.5-1.1-6.1-1.4-20.8-1.4-25.8 0-24.5-.8-32.3 18.8-7.5 18.7-36.9 73.3-55.1 102.5-10.7 17.3-31.4 47.8-38.8 57.2-7.3 9.4-16.7 18.4-24.4 23.3-10.8 6.9-16.4 8.5-64.1 17.8l-23.5 4.6-46.5.5c-48.6.6-87.8-.7-101.7-3.1-4.3-.8-11.8-3-16.6-4.9-24-9.7-42.6-24.7-56.7-45.9-10.4-15.5-1.8 5.9-113.2-281.8-99.4-256.7-185.5-479.5-197.9-512.3-6.9-18.1-12.1-30.2-13.5-31.7l-2.4-2.5-25.8-.1c-14.1-.1-26.7 0-27.9.3zm54.1 374.9l69.5 177.9-138.1.3c-76 .1-138.3 0-138.6-.2-.2-.3 4.7-13.6 10.8-29.8 22.6-59.2 114.6-297.9 125.1-324.7.5-1.3 1.2-2.2 1.4-1.9.2.2 31.7 80.5 69.9 178.4z"/><path d="M576.3 199.2c-1.6 2.1-2.4 17.8-1.3 26.6 1.2 9.5 3.9 16.4 7.2 18.6 1.3.8 14.7 4.9 29.8 9 15.1 4.1 31.3 8.7 36 10.1 29.7 9.4 43.2 22.8 49.6 49.6 1.7 6.9 1.9 15.2 2 117 .2 107.1.3 109.9 2.3 120.7 2.7 14.1 6.4 24.6 25.9 74.7 8.8 22.5 34.7 89.4 57.5 148.5 52.8 136.8 52.9 137 54.4 137 1 0 1.3-58.1 1.6-299.3.2-284.4.3-299.6 2.1-306.7 3.9-16.5 10.3-27.3 20.4-34.9 11.8-8.9 48.9-18.8 85.8-23.1 12-1.3 17.1-2.3 18.3-3.5 2.2-2.2 2.6-39.8.5-43.3L967 198H772.1c-154.7 0-195.1.3-195.8 1.2z"/></svg>